<svg xmlns="http://www.w3.org/2000/svg" xmlns:xlink="http://www.w3.org/1999/xlink" width="1024" height="620" viewBox="0 0 1024 620">
  <defs>
    <style>
      .cls-1 {
        isolation: isolate;
      }

      .cls-2 {
        fill: none;
      }

      .cls-3, .cls-4 {
        fill: #51b2fb;
      }

      .cls-3, .cls-32 {
        opacity: 0.1;
      }

      .cls-4 {
        opacity: 0.2;
      }

      .cls-5 {
        fill: #e3ebfc;
      }

      .cls-6 {
        fill: #ccddfa;
      }

      .cls-7 {
        fill: #fafbff;
      }

      .cls-8 {
        fill: #80a7f6;
      }

      .cls-9 {
        fill: #9fbcfb;
      }

      .cls-10 {
        fill: #b8d0f9;
      }

      .cls-11, .cls-29, .cls-31 {
        fill: #207bff;
      }

      .cls-11, .cls-37 {
        opacity: 0.4;
      }

      .cls-12 {
        fill: #004bff;
        opacity: 0.5;
        mix-blend-mode: multiply;
      }

      .cls-13 {
        fill: #c5d8fa;
      }

      .cls-14 {
        fill: url(#_ÂÁ_Ï_ÌÌ_È_ËÂÌÚ_30);
      }

      .cls-15 {
        fill: #4aebff;
      }

      .cls-16, .cls-30 {
        fill: #fff;
      }

      .cls-17 {
        fill: #bef9ff;
      }

      .cls-18 {
        fill: url(#linear-gradient);
      }

      .cls-19 {
        fill: #ec1c24;
      }

      .cls-20 {
        fill: url(#linear-gradient-2);
      }

      .cls-21 {
        fill: url(#linear-gradient-3);
      }

      .cls-22 {
        fill: url(#linear-gradient-4);
      }

      .cls-23 {
        fill: url(#linear-gradient-5);
      }

      .cls-24 {
        fill: url(#linear-gradient-6);
      }

      .cls-25 {
        fill: url(#linear-gradient-7);
      }

      .cls-26 {
        fill: url(#_ÂÁ_Ï_ÌÌ_È_ËÂÌÚ_14);
      }

      .cls-27 {
        fill: url(#_ÂÁ_Ï_ÌÌ_È_ËÂÌÚ_18);
      }

      .cls-28 {
        fill: #4880f8;
      }

      .cls-30 {
        opacity: 0.8;
      }

      .cls-31 {
        opacity: 0.72;
      }

      .cls-32, .cls-33, .cls-34, .cls-35 {
        fill: #3ae6fb;
      }

      .cls-33 {
        opacity: 0.3;
      }

      .cls-35 {
        opacity: 0.7;
      }

      .cls-36 {
        fill: #93b4fb;
      }

      .cls-37 {
        mix-blend-mode: lighten;
        fill: url(#radial-gradient);
      }

      .cls-38 {
        fill: #00ffda;
      }

      .cls-39 {
        fill: #7fd1ca;
      }

      .cls-40 {
        fill: #1e1e1e;
      }
    </style>
    <radialGradient id="_ÂÁ_Ï_ÌÌ_È_ËÂÌÚ_30" data-name="¡ÂÁ˚ÏˇÌÌ˚È „‡‰ËÂÌÚ 30" cx="4514.35" cy="441.61" r="8.14" gradientTransform="translate(-4284.51)" gradientUnits="userSpaceOnUse">
      <stop offset="0" stop-color="#4aebff"/>
      <stop offset="1" stop-color="#00709e"/>
    </radialGradient>
    <linearGradient id="linear-gradient" x1="198.02" y1="299.44" x2="198.02" y2="344.32" gradientTransform="translate(45.19)" gradientUnits="userSpaceOnUse">
      <stop offset="0.02" stop-color="#dd2a21"/>
      <stop offset="0.06" stop-color="#c8201b"/>
      <stop offset="0.1" stop-color="#b71717"/>
      <stop offset="0.15" stop-color="#ac1113"/>
      <stop offset="0.22" stop-color="#a50e12"/>
      <stop offset="0.43" stop-color="#a30d11"/>
      <stop offset="0.79" stop-color="#6b0006"/>
    </linearGradient>
    <linearGradient id="linear-gradient-2" x1="184.98" y1="301.44" x2="184.98" y2="333.66" gradientTransform="translate(45.19)" gradientUnits="userSpaceOnUse">
      <stop offset="0" stop-color="#ad1a27"/>
      <stop offset="0.08" stop-color="#9e151f"/>
      <stop offset="0.28" stop-color="#7d090e"/>
      <stop offset="0.44" stop-color="#680304"/>
      <stop offset="0.56" stop-color="#610000"/>
      <stop offset="0.73" stop-color="#520000"/>
      <stop offset="1" stop-color="#3f0000"/>
    </linearGradient>
    <linearGradient id="linear-gradient-3" x1="736.77" y1="318.03" x2="757.6" y2="318.03" gradientTransform="matrix(-1, 0, 0, 1, 1015.73, 0)" gradientUnits="userSpaceOnUse">
      <stop offset="0" stop-color="#be1349"/>
      <stop offset="0.24" stop-color="#be124e"/>
      <stop offset="0.25" stop-color="#be124e"/>
      <stop offset="1" stop-color="#7a0025"/>
    </linearGradient>
    <linearGradient id="linear-gradient-4" x1="729.83" y1="328.73" x2="757.7" y2="328.73" gradientTransform="matrix(-1, 0, 0, 1, 1015.73, 0)" gradientUnits="userSpaceOnUse">
      <stop offset="0" stop-color="#282881"/>
      <stop offset="0.27" stop-color="#26257d"/>
      <stop offset="0.55" stop-color="#1f1b70"/>
      <stop offset="0.84" stop-color="#150c5b"/>
      <stop offset="1" stop-color="#0d004c"/>
    </linearGradient>
    <linearGradient id="linear-gradient-5" x1="736.42" y1="328.73" x2="757.61" y2="328.73" xlink:href="#linear-gradient-3"/>
    <linearGradient id="linear-gradient-6" x1="740.71" y1="317.94" x2="767.34" y2="317.94" xlink:href="#linear-gradient-4"/>
    <linearGradient id="linear-gradient-7" x1="205.31" y1="327.67" x2="205.31" y2="312.42" gradientTransform="translate(45.19)" gradientUnits="userSpaceOnUse">
      <stop offset="0" stop-color="#ed2d24"/>
      <stop offset="0.12" stop-color="#ed2824"/>
      <stop offset="0.25" stop-color="#ec1c24"/>
      <stop offset="1" stop-color="#74020d"/>
    </linearGradient>
    <linearGradient id="_ÂÁ_Ï_ÌÌ_È_ËÂÌÚ_14" data-name="¡ÂÁ˚ÏˇÌÌ˚È „‡‰ËÂÌÚ 14" x1="4455.34" y1="421.57" x2="4545.92" y2="421.57" gradientTransform="translate(-4295.07 14.34) rotate(-2.88)" gradientUnits="userSpaceOnUse">
      <stop offset="0" stop-color="#003a6b"/>
      <stop offset="1" stop-color="#00204c"/>
    </linearGradient>
    <linearGradient id="_ÂÁ_Ï_ÌÌ_È_ËÂÌÚ_18" data-name="¡ÂÁ˚ÏˇÌÌ˚È „‡‰ËÂÌÚ 18" x1="4485.35" y1="171.19" x2="4531.24" y2="248.51" gradientTransform="translate(-4284.51)" gradientUnits="userSpaceOnUse">
      <stop offset="0" stop-color="#cbd7e1"/>
      <stop offset="0.05" stop-color="#aec0d0"/>
      <stop offset="0.15" stop-color="#7998b2"/>
      <stop offset="0.26" stop-color="#4e7698"/>
      <stop offset="0.35" stop-color="#2c5c85"/>
      <stop offset="0.44" stop-color="#144976"/>
      <stop offset="0.53" stop-color="#053e6e"/>
      <stop offset="0.6" stop-color="#003a6b"/>
      <stop offset="1" stop-color="#00204c"/>
    </linearGradient>
    <radialGradient id="radial-gradient" cx="3019.5" cy="411.8" r="17.24" gradientTransform="matrix(0.74, 0.02, -0.03, 0.82, -2103.65, -82.03)" gradientUnits="userSpaceOnUse">
      <stop offset="0" stop-color="#00ddde" stop-opacity="0.52"/>
      <stop offset="0.09" stop-color="#2de6e7" stop-opacity="0.65"/>
      <stop offset="0.2" stop-color="#63f1f1" stop-opacity="0.8"/>
      <stop offset="0.3" stop-color="#8af8f9" stop-opacity="0.91"/>
      <stop offset="0.38" stop-color="#a2fdfd" stop-opacity="0.98"/>
      <stop offset="0.43" stop-color="#abffff"/>
      <stop offset="0.46" stop-color="#9ffcfd"/>
      <stop offset="0.51" stop-color="#7ff6f6"/>
      <stop offset="0.58" stop-color="#4aebeb"/>
      <stop offset="0.66" stop-color="#03dcdd"/>
      <stop offset="0.66" stop-color="#00dbdc"/>
      <stop offset="0.69" stop-color="#08dcdd" stop-opacity="0.97"/>
      <stop offset="0.74" stop-color="#1fdfe0" stop-opacity="0.88"/>
      <stop offset="0.8" stop-color="#44e5e5" stop-opacity="0.73"/>
      <stop offset="0.87" stop-color="#78eced" stop-opacity="0.53"/>
      <stop offset="0.94" stop-color="#baf5f6" stop-opacity="0.27"/>
      <stop offset="1" stop-color="#fff" stop-opacity="0"/>
    </radialGradient>
  </defs>
  <title>robot</title>
  <g class="cls-1">
    <g id="Robot">
      <g id="fondo">
        <rect class="cls-2" width="1024" height="620"/>
      </g>
      <g id="sombra">
        <g>
          <ellipse class="cls-3" cx="208.03" cy="488.34" rx="65.28" ry="14.66"/>
          <ellipse class="cls-4" cx="208.03" cy="488.34" rx="50.85" ry="9.32"/>
          <path class="cls-4" d="M238.64,488.34c0,3.1-13.7,5.62-30.61,5.62s-30.62-2.52-30.62-5.62,13.71-5.61,30.62-5.61S238.64,485.24,238.64,488.34Z"/>
        </g>
      </g>
      <g id="brazoIzquierdo">
        <g>
          <g>
            <path class="cls-5" d="M321.34,349.07c-9.54-45.35-28-64.69-32.39-68.71a3.78,3.78,0,0,0-2.32-1c-3.22-.2-11.54.63-19.71,12.69-5.64,8.33-3.68,21.8-3.17,22.45,5.3,6.8,38.6,49.62,47.45,64.28C320.82,394.71,325.42,368.45,321.34,349.07Z"/>
            <path class="cls-6" d="M266.87,292.09a37.43,37.43,0,0,1,7.76-8.61c-.88,1.06-1.76,2.23-2.65,3.54-7.12,10.52-3.7,17.64-1.2,22.5,9,17.45,34.4,49.79,40.94,70.19q-.29-.42-.57-.9c-8.84-14.65-42.15-57.47-47.45-64.27C263.19,313.89,261.23,300.42,266.87,292.09Z"/>
            <path class="cls-7" d="M292.83,296.3c21.34,15.37,27.56,70,27.56,70S306.27,328.7,295.55,313,285.55,291.06,292.83,296.3Z"/>
            <path class="cls-6" d="M305.88,370c.11,3.18.51,5.81.25,7.89-.1.72-3.59,4.21-3.62,3.84-.26-3.3-3.23-20.45-6.39-24.79C295,355.38,305.76,366.81,305.88,370Z"/>
            <path class="cls-8" d="M295.74,357.46a.53.53,0,0,0,.41-.3c4-8.69,13.66-16,23.64-12.44a.53.53,0,0,0,.36-1c-10.57-3.77-20.75,3.88-25,13a.54.54,0,0,0,.26.7A.6.6,0,0,0,295.74,357.46Z"/>
          </g>
          <path class="cls-9" d="M289.71,300.52c-1.23,14.16-7.16,25.21-13.25,24.68s-10-12.43-8.81-26.59,7.15-25,13.25-24.69C289.72,274.39,290.93,286.36,289.71,300.52Z"/>
        </g>
      </g>
      <g id="torso">
        <g>
          <path class="cls-5" d="M149,266.25c-6.32-.41-28.62,21.95-21.91,43.65s44.7,94.1,53.3,119.45,13.77,31.59,26,33.89,30.72,3.14,52.15-41.61,24.73-95,25.71-118.89-1.53-33.36-9.88-36.08C254.91,260.3,149,266.25,149,266.25Z"/>
          <path class="cls-7" d="M249.9,416.36c16.61-47.08,14.61-97.68,13.07-121.66-1-15.94-2.91-25.34-6.58-30.39-17.7-1-43.56-.57-65.47.14,11.72,30.91,29,83,31.92,136.58,1.92,35.77-3,53.25-9.86,62.2C224.14,461,237.53,451.39,249.9,416.36Z"/>
          <path class="cls-10" d="M276.23,268.64c0,4.64-32.78,11.85-65.85,11.9s-65.88-7-65.89-11.68,32.79-5.06,65.87-5.12S276.22,264,276.23,268.64Z"/>
          <path class="cls-11" d="M256.24,269.59c0,3.21-22.58,8.19-45.36,8.23s-45.38-4.87-45.39-8.08,22.59-3.5,45.37-3.54S256.23,266.38,256.24,269.59Z"/>
          <path class="cls-12" d="M242.37,271.26c0,1.22-15.57,2.78-30.74,2.8s-29.71-1.48-29.71-2.7,14.52-1.72,29.7-1.74S242.37,270,242.37,271.26Z"/>
          <path class="cls-13" d="M194,434.59c-3.51-19-8.75-81-21.22-124.81-6.25-21.94-21-37.43-35.21-32.52-10.11,3.48-14.11,20.91-10.48,32.64,6.71,21.69,44.7,94.1,53.3,119.45s13.77,31.59,26,33.89c6.3,1.18,14.26,2,23.43-3.65C217.41,461.53,199.82,466,194,434.59Z"/>
          <path class="cls-14" d="M237.78,443.83a22.68,22.68,0,0,1-7.54,1.24,34.93,34.93,0,0,1-8.43-.61c-1.57-.4-2.95-1.42-2.94-3.14h0a3,3,0,0,1,2.95-3.12s6.48.72,8.06.7a56.52,56.52,0,0,0,8.19-.77c1.63,0,3.15.48,2.66,2.81C240.5,442,239.74,443.09,237.78,443.83Z"/>
          <path class="cls-15" d="M236.74,443.48a23,23,0,0,1-6.51.88,35.47,35.47,0,0,1-7.29-.44c-1.36-.28-2.55-1-2.55-2.23h0a2.41,2.41,0,0,1,2.55-2.23s5.61.52,7,.51a61,61,0,0,0,7.08-.55c1.41,0,2.72.34,2.3,2C239.09,442.19,238.44,443,236.74,443.48Z"/>
          <path class="cls-8" d="M228.42,429.52c-14.9,0-33.17-3.23-52.87-11.33a.53.53,0,1,1,.4-1c36.71,15.1,68.31,13.18,82.12,5a.53.53,0,0,1,.54.91C252,427,241.53,429.52,228.42,429.52Z"/>
          <path class="cls-16" d="M228,428.34c-14.9,0-33.17-3.23-52.87-11.33a.53.53,0,0,1,.4-1c36.72,15.09,68.31,13.18,82.12,5a.53.53,0,1,1,.54.91C251.65,425.84,241.14,428.34,228,428.34Z"/>
          <path class="cls-7" d="M281.47,278.49C284.29,335.86,276,363,276,363s7.91-43.35.62-85.25C275.63,272,281,269.52,281.47,278.49Z"/>
          <path class="cls-16" d="M149.55,274.48s6.52,3.93,30.4,6.15,55.29,1.79,55.29,1.79-29,3.84-55.41,1S149.55,274.48,149.55,274.48Z"/>
          <path class="cls-17" d="M233.74,439.78c-1.16.1-2.5.18-3.83.19s-7-.51-7-.51a3.07,3.07,0,0,0-.53.05l2.57,4.7a50.73,50.73,0,0,0,5.25.15,24.12,24.12,0,0,0,6.06-.76Z"/>
          <g>
            <path class="cls-18" d="M228,317.8A20.25,20.25,0,0,1,240.64,299a20.64,20.64,0,0,1,2.25.28,18.67,18.67,0,0,1,15.52,17.78c0,.2,0,.4,0,.61v.22A11.57,11.57,0,0,0,243.09,307c1.14-.41,1.09-.41-.07,0a11.21,11.21,0,0,0-3.9-.68c-6.46,0-11,5.21-11,11.45v.1c0,6.25,4.48,11.35,10.93,11.35a11.11,11.11,0,0,0,3.56-.57,11.57,11.57,0,0,0,15.85-10.55A18.48,18.48,0,0,1,243,336.29a20.19,20.19,0,0,1-2.37.29A20.26,20.26,0,0,1,228,317.8Z"/>
            <path class="cls-19" d="M235.3,317.94a11.57,11.57,0,0,0,7.27,10.74,11.11,11.11,0,0,1-3.56.57c-6.45,0-10.93-5.1-10.93-11.35v-.1c0-6.24,4.58-11.45,11-11.45a11.21,11.21,0,0,1,3.9.68c1.16-.43,1.21-.43.07,0A11.58,11.58,0,0,0,235.3,317.94Z"/>
            <path class="cls-20" d="M239,299c.55,0,1.09,0,1.63.07a20.26,20.26,0,0,0,0,37.55q-.75.06-1.53.06c-11.25,0-19.42-8.48-19.42-18.84v-.1C219.7,307.34,227.77,299,239,299Z"/>
            <path class="cls-21" d="M258.43,317.94c0,.06,0,.13,0,.19s0-.14,0-.21Z"/>
            <path class="cls-22" d="M242.89,328.57c1.21.43,1.19.44,0,0Z"/>
            <path class="cls-23" d="M242.89,328.57c1.21.43,1.19.44,0,0Z"/>
            <path class="cls-24" d="M246.86,329.5a11.57,11.57,0,0,1-4.29-.82l.32-.11c1.19.44,1.21.43,0,0a11.28,11.28,0,0,0,7.44-10.77v-.1A11.1,11.1,0,0,0,243,307l.07,0a11.57,11.57,0,0,1,15.34,10.91c0,.07,0,.14,0,.21A11.55,11.55,0,0,1,246.86,329.5Z"/>
            <path class="cls-25" d="M246.86,329.5a11.57,11.57,0,0,1-4.29-.82l.32-.11c1.19.44,1.21.43,0,0a11.28,11.28,0,0,0,7.44-10.77v-.1A11.1,11.1,0,0,0,243,307l.07,0a11.57,11.57,0,0,1,15.34,10.91c0,.07,0,.14,0,.21A11.55,11.55,0,0,1,246.86,329.5Z"/>
          </g>
        </g>
      </g>
      <g id="cabeza">
        <g>
          <g>
            <path class="cls-5" d="M154,248.6c15.05,19.38,61.12,15.69,74,14.47s34.58-3.47,42.41-27.09,3.92-59.68-17.62-78.42-79.17-15.69-98.75,9.57S148.79,241.88,154,248.6Z"/>
            <path class="cls-16" d="M158,172.29c.86-.31,18.65-14.14,50.86-16.9,11.09-.95,28.37,0,39.46,1.54-1.1-1.17-17-10.38-49.89-7C190.4,150.81,171.81,155.83,158,172.29Z"/>
            <path class="cls-7" d="M216.56,166.56c-10.37.17-20.76.9-30.54,4.62a2.18,2.18,0,0,0-.23.09c10.15,21.49,11,49.49,5,69.51A42.22,42.22,0,0,1,182.2,257c17.92,3.16,38,1.51,45.77.77,8.49-.81,20.87-2.07,30.56-9.67a49.57,49.57,0,0,0,2.8-7.33c6-20.28,5.09-48.76-5.44-70.35A167.05,167.05,0,0,0,216.56,166.56Z"/>
            <path class="cls-26" d="M179.06,185.64c6-8.13,22.27-10.25,42.69-11.47,26.34-1.57,35.25,3.2,37.94,6.24s7.36,18.18,6.35,32.88-1.16,19.12-7.21,22.78-23.52,7.23-34.81,7.51c-21.39.52-32.17-.52-39.32-4.72-3.65-2.15-8.3-13.72-9-28S176,189.86,179.06,185.64Z"/>
            <path class="cls-27" d="M221,176.44c-12.68.74-23.7,1.83-31.46,4.57,6.78,18.82,6.83,41.15,1.79,57.67-.05.19-.12.37-.18.56,6.78,1.95,16.48,2.43,32,2.06,10.83-.26,27.59-3.61,33.39-7a10.36,10.36,0,0,0,4.55-4.74,98.32,98.32,0,0,0-3.35-46.79c-.13-.18-.25-.34-.37-.48C254.83,179.43,246.28,175,221,176.44Z"/>
            <path class="cls-9" d="M165.21,199.16c-.36,8-4.82,14.27-10,14s-9-6.89-8.68-14.87,4.81-14.28,10-14.05S165.56,191.17,165.21,199.16Z"/>
            <path class="cls-28" d="M161.13,198.56c-.25,5.6-3,10-6.1,9.9s-5.45-4.8-5.2-10.41,3-10,6.1-9.9S161.38,193,161.13,198.56Z"/>
            <path class="cls-29" d="M161.22,199l-.53,0,.53,0a19.7,19.7,0,0,0-2.35-10.64c-1.73-3-4.16-4.67-6.84-4.79-5.41-.24-10.14,6.29-10.51,14.55s3.75,15.19,9.18,15.43H151C156.3,213.54,160.86,207.09,161.22,199ZM152,184.61c2.3.1,4.42,1.61,6,4.26a18.55,18.55,0,0,1,2.2,10.06c-.34,7.68-4.57,13.74-9.41,13.54s-8.52-6.64-8.18-14.32,4.42-13.55,9.17-13.55Z"/>
            <path class="cls-7" d="M151.34,217.67l3.78.13s1.61,15.69,6.13,24.91,10.95,12.17,10.95,12.17-9.68-3.13-15.47-15.08C152.55,231.19,151.34,217.67,151.34,217.67Z"/>
            <path class="cls-30" d="M182.61,186.84v0a2,2,0,0,0,2.88.68c1.84-1.26,4.64-3.14,6.25-4,2.54-1.39,15.12-6,15.12-6s-12.61.26-23.31,6.08A2.37,2.37,0,0,0,182.61,186.84Z"/>
          </g>
          <path class="cls-31" d="M172.73,197.32c0,2.48-1.16,4.49-2.58,4.49s-2.57-2-2.57-4.49,1.15-4.49,2.57-4.49S172.73,194.84,172.73,197.32Z"/>
        </g>
      </g>
      <g id="ojos">
        <g>
          <rect class="cls-32" x="203.29" y="191.23" width="18.17" height="23.74" rx="3.93"/>
          <rect class="cls-32" x="205.2" y="193.78" width="14.36" height="18.63" rx="3.93"/>
          <rect class="cls-33" x="207.61" y="196.17" width="9.96" height="14.51" rx="2.44"/>
          <path class="cls-34" d="M216.52,201.76h-8.19a.38.38,0,0,1-.39-.39.39.39,0,0,1,.39-.4h8.19a.39.39,0,0,1,.39.4A.38.38,0,0,1,216.52,201.76Z"/>
          <path class="cls-34" d="M216.52,203.49h-8.19a.4.4,0,0,1,0-.79h8.19a.4.4,0,0,1,0,.79Z"/>
          <path class="cls-34" d="M216.52,205.28h-8.19a.38.38,0,0,1-.39-.39.39.39,0,0,1,.39-.4h8.19a.39.39,0,0,1,.39.4A.38.38,0,0,1,216.52,205.28Z"/>
          <path class="cls-34" d="M215.47,198.45h-6.09a.4.4,0,0,1-.4-.4.39.39,0,0,1,.4-.39h6.09a.39.39,0,0,1,.4.39A.4.4,0,0,1,215.47,198.45Z"/>
          <path class="cls-34" d="M216.52,200.24h-8.19a.4.4,0,0,1,0-.79h8.19a.4.4,0,0,1,0,.79Z"/>
          <path class="cls-34" d="M216.52,207.41h-8.19a.38.38,0,0,1-.39-.39.39.39,0,0,1,.39-.4h8.19a.39.39,0,0,1,.39.4A.38.38,0,0,1,216.52,207.41Z"/>
          <path class="cls-34" d="M216.52,209.14h-8.19a.38.38,0,0,1-.39-.39.39.39,0,0,1,.39-.4h8.19a.39.39,0,0,1,.39.4A.38.38,0,0,1,216.52,209.14Z"/>
        </g>
        <g>
          <rect class="cls-32" x="232.24" y="191.23" width="18.17" height="23.74" rx="3.93"/>
          <rect class="cls-32" x="234.15" y="193.78" width="14.36" height="18.63" rx="3.93"/>
          <rect class="cls-33" x="236.57" y="196.17" width="9.96" height="14.51" rx="2.44"/>
          <path class="cls-34" d="M245.47,201.76h-8.19a.39.39,0,0,1-.39-.39.4.4,0,0,1,.39-.4h8.19a.39.39,0,0,1,.39.4A.38.38,0,0,1,245.47,201.76Z"/>
          <path class="cls-34" d="M245.47,203.49h-8.19a.4.4,0,0,1,0-.79h8.19a.4.4,0,0,1,0,.79Z"/>
          <path class="cls-34" d="M245.47,205.28h-8.19a.39.39,0,0,1-.39-.39.4.4,0,0,1,.39-.4h8.19a.39.39,0,0,1,.39.4A.38.38,0,0,1,245.47,205.28Z"/>
          <path class="cls-34" d="M244.43,198.45h-6.1a.4.4,0,0,1-.4-.4.39.39,0,0,1,.4-.39h6.1a.39.39,0,0,1,.39.39A.4.4,0,0,1,244.43,198.45Z"/>
          <path class="cls-34" d="M245.47,200.24h-8.19a.4.4,0,0,1,0-.79h8.19a.4.4,0,0,1,0,.79Z"/>
          <path class="cls-34" d="M245.47,207.41h-8.19a.39.39,0,0,1-.39-.39.4.4,0,0,1,.39-.4h8.19a.39.39,0,0,1,.39.4A.38.38,0,0,1,245.47,207.41Z"/>
          <path class="cls-34" d="M245.47,209.14h-8.19a.39.39,0,0,1-.39-.39.4.4,0,0,1,.39-.4h8.19a.39.39,0,0,1,.39.4A.38.38,0,0,1,245.47,209.14Z"/>
        </g>
      </g>
      <g id="boca">
        <path class="cls-35" d="M216.16,227.13c8.2,1.05,22.9,1.86,22.9,1.86s-13,1.32-21.48-.14S207.34,226,216.16,227.13Z"/>
      </g>
      <g id="brazoDerecho">
        <g>
          <path class="cls-36" d="M162.34,309c4.54,15.83.94,30.76-8,33.34s-20-8.16-24.5-24-1-30.75,8-33.33S157.79,293.14,162.34,309Z"/>
          <path class="cls-29" d="M151.42,338.4a.57.57,0,0,1,0-1.14c2.15-.14,3.93-1.39,5.28-3.7,3.73-6.42,3-18.53-1.67-28.18-5.61-11.52-14.56-16.12-19.65-13.78a.57.57,0,0,1-.76-.27.58.58,0,0,1,.28-.76c6.4-3,15.88,3.47,21.15,14.31,4.84,10,5.55,22.54,1.63,29.25-1.53,2.63-3.67,4.1-6.19,4.27Z"/>
          <g>
            <path class="cls-5" d="M102.23,368c3.77-46.19,19.71-67.7,23.51-72.22a3.79,3.79,0,0,1,2.18-1.3c3.17-.61,11.53-.82,21.14,10.12,6.64,7.56,6.39,21.16,6,21.88-4.4,7.4-32.07,54.06-39,69.71C108.47,413.24,100.61,387.76,102.23,368Z"/>
            <path class="cls-6" d="M149.12,304.66a37.68,37.68,0,0,0-8.78-7.57c1,1,2,2,3.08,3.19,8.38,9.53,5.87,17,4,22.17-6.7,18.43-27.88,53.7-31.81,74.77.15-.31.3-.62.45-1,6.94-15.66,34.6-62.31,39-69.72C155.5,325.82,155.76,312.22,149.12,304.66Z"/>
            <path class="cls-7" d="M123.9,312.1C104.65,330,105.34,385,105.34,385s9.28-39.09,18-56S130.46,306,123.9,312.1Z"/>
            <path class="cls-6" d="M120.19,386.83c.29,3.17.22,5.83.75,7.86.18.7,4.08,3.73,4.06,3.35-.15-3.3.64-20.68,3.24-25.4C129.16,371,119.91,383.67,120.19,386.83Z"/>
            <path class="cls-8" d="M128.68,373.14a.53.53,0,0,1-.45-.25c-5.07-8.12-15.56-14.16-25-9.38a.53.53,0,1,1-.48-.94c10-5.07,21.07,1.25,26.39,9.76a.53.53,0,0,1-.17.73A.57.57,0,0,1,128.68,373.14Z"/>
          </g>
          <g>
            <path class="cls-37" d="M135.07,325.18c-.24,7.83-6.15,14-13.2,13.78s-12.57-6.73-12.34-14.56,6.15-14,13.2-13.78S135.3,317.35,135.07,325.18Z"/>
            <g>
              <path class="cls-38" d="M113.56,326c-.17,2.64,1.31,5.39,2.82,7.49a26.16,26.16,0,0,0,3.07,3.53s8.14-2.08,10.39-6.76c.46-1,2.59-7.1,2.59-7.1s.65-1.48-.56-2.16a39.2,39.2,0,0,1-4.13-2.34,11.72,11.72,0,0,0-2.75-1.77c-.78-.28-1.12-.12-2.55,0a46.63,46.63,0,0,1-4.86-.12c-1.43-.05-1.6,1.6-1.6,1.6S113.64,324.9,113.56,326Z"/>
              <path class="cls-39" d="M116,318.36s-2.34,6.54-2.42,7.64c-.34,5.27,5.89,11,5.89,11h0s8.15-2.09,10.39-6.76c.46-1,2.59-7.1,2.59-7.1s.65-1.49-.55-2.16a38.29,38.29,0,0,1-4.14-2.34,11.72,11.72,0,0,0-2.75-1.77c-.78-.28-1.12-.12-2.55,0a41.54,41.54,0,0,1-4.86-.13C116.15,316.71,116,318.36,116,318.36Zm1.28-.27,1.2,0a14.49,14.49,0,0,0,3.74,0c2.58-.5,3.37.81,4.61,1.7a23.61,23.61,0,0,0,3.17,1.85c.37.19.72.36,1,.54a1,1,0,0,1,0,.29.36.36,0,0,0,0,.09c-.82,2.34-2.23,6.31-2.55,7-1,2-3.42,3.53-5.31,4.43a26.45,26.45,0,0,1-3.15,1.25,25.66,25.66,0,0,1-2.19-2.65c-1.22-1.7-2.68-4.51-2.53-6.78a49,49,0,0,1,2-7.41C117.16,318.39,117.26,318.09,117.26,318.09Z"/>
              <path class="cls-40" d="M113.56,326c-.2,3.06,1.82,6.28,3.55,8.44-1.58-2.13-3.18-5-3-7.73.08-1.11,2.42-7.64,2.42-7.64s.17-1.65,1.6-1.61a43.9,43.9,0,0,0,4.85.12c1.44-.1,1.78-.26,2.56,0a11.93,11.93,0,0,1,2.75,1.77,40,40,0,0,0,4.13,2.34l.11.07a1.35,1.35,0,0,0-.66-.78,38.22,38.22,0,0,1-4.13-2.34,11.72,11.72,0,0,0-2.75-1.77c-.78-.28-1.12-.12-2.55,0a44,44,0,0,1-4.86-.12c-1.43,0-1.6,1.62-1.6,1.62S113.64,324.9,113.56,326Z"/>
              <path class="cls-39" d="M121.68,326.14a.52.52,0,0,0,.13.48l-.1.39a.09.09,0,0,0,.07.12l.31.09a.12.12,0,0,0,.13-.08l.1-.38a.51.51,0,1,0-.64-.62Z"/>
              <path class="cls-39" d="M121.69,323.53l-.2.74,2.26.6.19-.75a1.16,1.16,0,1,0-2.25-.59Z"/>
              <path class="cls-39" d="M117.6,320.18s-1.42,4.82-1.48,5.64c-.3,3.91,4.06,8.43,4.06,8.43h0s5.78-1.62,7.41-5.13c.34-.73,1.92-5.31,1.92-5.31s.47-1.12-.38-1.61a25.13,25.13,0,0,1-2.9-1.69c-.5-.37-1-.67-1.32-.9a4.53,4.53,0,0,0-.83-.45h0a3.11,3.11,0,0,0-1.69-.13,27.37,27.37,0,0,1-3.42,0C118,319,117.6,320.18,117.6,320.18Zm2.07,4.27a.63.63,0,0,1,.77-.45l.17,0,.2-.75a2.08,2.08,0,1,1,4,1.06l-.2.75.16,0a.62.62,0,0,1,.45.77l-.77,2.93a.63.63,0,0,1-.77.45l-4.35-1.14a.64.64,0,0,1-.45-.78Z"/>
              <path class="cls-40" d="M116.12,325.82c-.22,2.81,2,5.93,3.22,7.47-1.25-1.67-2.86-4.33-2.67-6.76.06-.82,1.48-5.64,1.48-5.64s.34-1.21,1.35-1.19a25.69,25.69,0,0,0,3.42,0,3.17,3.17,0,0,1,1.69.14h0a4.89,4.89,0,0,1,.83.45c.37.22.82.53,1.32.9a21.35,21.35,0,0,0,2.84,1.65,1,1,0,0,0-.48-.67,25.19,25.19,0,0,1-2.91-1.69c-.5-.37-1-.68-1.32-.9a5.81,5.81,0,0,0-.82-.45h0a3.06,3.06,0,0,0-1.69-.14,27.39,27.39,0,0,1-3.42,0c-1,0-1.35,1.19-1.35,1.19S116.18,325,116.12,325.82Z"/>
            </g>
          </g>
        </g>
      </g>
    </g>
  </g>
</svg>
